<?xml version="1.0" encoding="utf-8"?>
<!-- Generator: Adobe Illustrator 27.7.0, SVG Export Plug-In . SVG Version: 6.00 Build 0)  -->
<svg version="1.1" id="Layer_1" xmlns="http://www.w3.org/2000/svg" xmlns:xlink="http://www.w3.org/1999/xlink" x="0px" y="0px"
	 viewBox="0 0 200.41 202.9" style="enable-background:new 0 0 200.41 202.9;" xml:space="preserve">
<style type="text/css">
	.st0{fill:#667884;}
	
		.st1{clip-path:url(#SVGID_00000150092419852089778080000012721559501032071562_);fill:url(#SVGID_00000098184672507872507720000002275810553138952879_);}
	
		.st2{clip-path:url(#SVGID_00000040574487730504007040000011015534010875646099_);fill:url(#SVGID_00000011030710185550184910000003398426123821536643_);}
	
		.st3{clip-path:url(#SVGID_00000091713102448919345470000005420291466240610968_);fill:url(#SVGID_00000124121476143375739690000001921274914179406497_);}
	
		.st4{clip-path:url(#SVGID_00000013159282214452989820000016206652618780078474_);fill:url(#SVGID_00000021113851326714388160000005146907040342467462_);}
	
		.st5{clip-path:url(#SVGID_00000121253443937493547680000012615102583506938501_);fill:url(#SVGID_00000011720275318070942060000015284433590767240886_);}
	
		.st6{clip-path:url(#SVGID_00000039832626126858174780000014332107434130314416_);fill:url(#SVGID_00000173148153184529238400000003886880027305038750_);}
	
		.st7{clip-path:url(#SVGID_00000163034608388411289650000003479990242136835519_);fill:url(#SVGID_00000015324777883285029510000010646408765751453866_);}
	
		.st8{clip-path:url(#SVGID_00000127022864889748852900000006042457275718567610_);fill:url(#SVGID_00000136386104237834942910000004414610134954917268_);}
	
		.st9{clip-path:url(#SVGID_00000143613147944727393890000017579712502127231421_);fill:url(#SVGID_00000090264500960179232260000006312039244781492139_);}
	
		.st10{clip-path:url(#SVGID_00000072249715563963533650000013282984322725746869_);fill:url(#SVGID_00000165204384647728878620000005890296293315981723_);}
	
		.st11{clip-path:url(#SVGID_00000010301175488234520290000001355421141872343743_);fill:url(#SVGID_00000179639730695768309400000011901187358937010601_);}
	
		.st12{clip-path:url(#SVGID_00000039112468652273811320000005885991867783693959_);fill:url(#SVGID_00000149350242394816886540000004311808034064658359_);}
	
		.st13{clip-path:url(#SVGID_00000085251884726664526220000005862434339465255323_);fill:url(#SVGID_00000065778322552027585970000015224149508564690582_);}
	
		.st14{clip-path:url(#SVGID_00000013880504281998079910000000938926669225379750_);fill:url(#SVGID_00000129195180654045651520000001964823013764179088_);}
</style>
<path class="st0" d="M7.73,189.77c0.31,0.8,0.46,2.17,0.4,3.57c-0.07,1.61-0.41,3.05-0.96,4.06c-0.29,0.53-0.64,0.94-1.03,1.22
	c-0.44,0.31-0.93,0.47-1.46,0.47c-0.46,0-0.88-0.19-1.23-0.56c-0.31-0.33-0.56-0.78-0.75-1.37c-0.19-0.58-0.31-1.26-0.38-2.02
	c-0.05-0.69-0.04-1.45,0.03-2.15c0.06-0.72,0.19-1.39,0.35-1.95c0.19-0.62,0.43-1.08,0.69-1.36c0.1-0.1,0.26-0.1,0.35,0.01
	c0.1,0.13,0.09,0.31-0.01,0.43c-0.41,0.44-0.75,1.55-0.88,2.92c-0.14,1.43-0.01,2.89,0.31,3.91c0.34,1.03,0.85,1.55,1.51,1.55
	c0.85,0,1.55-0.47,2.06-1.43c0.5-0.92,0.81-2.26,0.89-3.76c0.05-1.3-0.09-2.58-0.36-3.29c-0.05-0.15,0-0.32,0.12-0.4
	C7.51,189.56,7.66,189.62,7.73,189.77"/>
<path class="st0" d="M12.94,198.06c0.09,0.12,0.09,0.31-0.02,0.41c-0.41,0.46-0.89,0.69-1.34,0.69c-0.07,0-0.15,0-0.23-0.01
	c-0.39-0.07-0.73-0.34-0.95-0.77c-0.21-0.43-0.3-0.96-0.25-1.56c0.12-1.4,0.85-2.17,1.51-2.2c0.49-0.03,0.85,0.34,0.95,0.95
	c0.06,0.43-0.01,0.84-0.24,1.2c-0.16,0.27-0.41,0.5-0.74,0.71c-0.33,0.22-0.68,0.36-0.89,0.43c0.14,0.37,0.38,0.62,0.68,0.67
	c0.36,0.07,0.78-0.12,1.15-0.53C12.69,197.93,12.84,197.94,12.94,198.06 M10.64,197.32c0.48-0.16,1.64-0.66,1.48-1.65
	c-0.04-0.3-0.19-0.47-0.41-0.47c-0.01,0-0.01,0-0.03,0.02c-0.43,0.01-0.94,0.61-1.03,1.67C10.64,197.04,10.64,197.18,10.64,197.32"
	/>
<path class="st0" d="M16.97,198.86c0,0.16-0.11,0.3-0.25,0.3c-0.33,0-0.61-0.16-0.85-0.49c-0.32-0.44-0.54-1.17-0.66-2.23
	c-0.09-0.81-0.12-1.8-0.09-2.95c0-0.34,0.01-0.68,0.04-0.99l-0.61,0.09h-0.04c-0.12,0-0.22-0.1-0.24-0.25
	c-0.03-0.16,0.08-0.31,0.21-0.34l0.71-0.1c0.07-1.22,0.17-2.11,0.17-2.12c0.03-0.16,0.15-0.28,0.29-0.25
	c0.14,0.01,0.22,0.16,0.21,0.32c0,0.02-0.1,0.84-0.17,1.98l1.18-0.19c0.14-0.01,0.26,0.1,0.28,0.27c0.03,0.16-0.07,0.31-0.21,0.32
	l-1.28,0.19c-0.01,0.35-0.04,0.72-0.04,1.11c-0.04,1.11,0,2.07,0.09,2.85c0.1,0.93,0.29,1.56,0.54,1.92
	c0.14,0.19,0.29,0.28,0.48,0.28C16.86,198.56,16.97,198.7,16.97,198.86"/>
<path class="st0" d="M21.78,198.06c0.09,0.12,0.09,0.31-0.02,0.41c-0.41,0.46-0.89,0.69-1.34,0.69c-0.07,0-0.15,0-0.22-0.01
	c-0.39-0.07-0.73-0.34-0.95-0.77c-0.21-0.43-0.3-0.96-0.25-1.56c0.12-1.4,0.85-2.17,1.51-2.2c0.49-0.03,0.85,0.34,0.95,0.95
	c0.06,0.43-0.01,0.84-0.24,1.2c-0.16,0.27-0.41,0.5-0.74,0.71c-0.33,0.22-0.68,0.36-0.89,0.43c0.14,0.37,0.38,0.62,0.68,0.67
	c0.36,0.07,0.78-0.12,1.15-0.53C21.53,197.93,21.68,197.94,21.78,198.06 M19.48,197.32c0.48-0.16,1.64-0.66,1.48-1.65
	c-0.04-0.3-0.19-0.47-0.41-0.47c-0.01,0-0.01,0-0.02,0.02c-0.43,0.01-0.94,0.61-1.03,1.67C19.48,197.04,19.48,197.18,19.48,197.32"
	/>
<path class="st0" d="M26.22,197.1c-0.1,0.12-0.26,0.1-0.35-0.01c-0.1-0.1-0.1-0.3,0-0.41c0.28-0.3,0.34-0.87,0.23-1.2
	c-0.09-0.27-0.24-0.27-0.29-0.27c-0.34,0-0.7,0.65-1,1.77c-0.25,0.94-0.38,1.9-0.38,1.92c-0.03,0.15-0.12,0.25-0.25,0.25h-0.01
	c-0.12-0.01-0.23-0.12-0.24-0.28c0-0.1-0.18-2.54-0.18-3.63c0-0.16,0.11-0.3,0.25-0.3c0.14,0,0.25,0.13,0.25,0.3
	c0,0.4,0.03,1.02,0.06,1.64c0-0.03,0.01-0.06,0.01-0.07c0.16-0.61,0.34-1.08,0.54-1.43c0.28-0.49,0.59-0.75,0.94-0.75
	c0.34,0,0.61,0.24,0.75,0.63C26.76,195.85,26.61,196.66,26.22,197.1"/>
<path class="st0" d="M28.44,192.38c0-0.25,0.17-0.47,0.4-0.47c0.21,0,0.4,0.22,0.4,0.47c0,0.27-0.19,0.47-0.4,0.47
	C28.61,192.85,28.44,192.65,28.44,192.38 M29.1,194.88c0,0,0,0.87,0.02,1.79c0.03,1.48,0.08,1.89,0.1,2.01
	c0.04,0.06,0.06,0.12,0.06,0.19c0,0.16-0.11,0.3-0.25,0.3c-0.05,0-0.2-0.01-0.28-0.24l-0.04-0.18l-0.05-0.49
	c-0.01-0.34-0.04-0.8-0.05-1.39c-0.02-0.99-0.02-1.98-0.02-1.99c0-0.16,0.11-0.3,0.25-0.3C28.99,194.58,29.1,194.71,29.1,194.88"/>
<path class="st0" d="M34.46,195.88c0.24,1.17-0.03,2.8-0.79,3.28c-0.12,0.07-0.28,0.02-0.34-0.13c-0.06-0.13-0.02-0.31,0.1-0.38
	c0.49-0.29,0.75-1.59,0.54-2.63c-0.06-0.31-0.23-0.84-0.6-0.84c-0.25,0-0.47,0.16-0.69,0.5c-0.19,0.31-0.36,0.75-0.51,1.3
	c-0.26,0.97-0.35,1.95-0.36,1.96c0,0.12-0.09,0.22-0.19,0.25h-0.06c-0.05,0-0.11-0.02-0.15-0.06c-0.1-0.09-0.11-0.22-0.12-0.38
	l-0.04-0.46c-0.01-0.31-0.03-0.74-0.03-1.27c-0.03-0.9-0.03-1.8-0.03-1.8c0-0.16,0.11-0.3,0.25-0.3c0.14,0,0.25,0.12,0.25,0.28
	c0,0.52,0.01,1.03,0.01,1.52c0.16-0.58,0.36-1.05,0.58-1.39c0.31-0.5,0.68-0.75,1.09-0.75C33.9,194.58,34.3,195.05,34.46,195.88"/>
<path class="st0" d="M39.42,198.06c0.09,0.12,0.09,0.31-0.02,0.41c-0.41,0.46-0.89,0.69-1.34,0.69c-0.07,0-0.15,0-0.22-0.01
	c-0.39-0.07-0.73-0.34-0.95-0.77c-0.21-0.43-0.3-0.96-0.25-1.56c0.12-1.4,0.85-2.17,1.51-2.2c0.49-0.03,0.85,0.34,0.95,0.95
	c0.06,0.43-0.01,0.84-0.24,1.2c-0.16,0.27-0.41,0.5-0.74,0.71c-0.32,0.22-0.68,0.36-0.89,0.43c0.14,0.37,0.38,0.62,0.68,0.67
	c0.36,0.07,0.78-0.12,1.15-0.53C39.17,197.93,39.32,197.94,39.42,198.06 M37.11,197.32c0.48-0.16,1.64-0.66,1.48-1.65
	c-0.04-0.3-0.19-0.47-0.41-0.47c-0.01,0-0.01,0-0.03,0.02c-0.43,0.01-0.94,0.61-1.03,1.67C37.11,197.04,37.11,197.18,37.11,197.32"
	/>
<path class="st0" d="M43.86,197.1c-0.1,0.12-0.26,0.1-0.35-0.01c-0.1-0.1-0.1-0.3,0-0.41c0.27-0.3,0.34-0.87,0.23-1.2
	c-0.09-0.27-0.24-0.27-0.29-0.27c-0.34,0-0.7,0.65-1,1.77c-0.25,0.94-0.38,1.9-0.38,1.92c-0.02,0.15-0.12,0.25-0.25,0.25h-0.01
	c-0.12-0.01-0.23-0.12-0.24-0.28c0-0.1-0.18-2.54-0.18-3.63c0-0.16,0.11-0.3,0.25-0.3c0.14,0,0.25,0.13,0.25,0.3
	c0,0.4,0.03,1.02,0.06,1.64c0-0.03,0.01-0.06,0.01-0.07c0.16-0.61,0.34-1.08,0.54-1.43c0.27-0.49,0.59-0.75,0.94-0.75
	c0.34,0,0.61,0.24,0.75,0.63C44.4,195.85,44.25,196.66,43.86,197.1"/>
<path class="st0" d="M50.76,192.38c0-0.25,0.18-0.47,0.4-0.47c0.21,0,0.4,0.22,0.4,0.47c0,0.27-0.19,0.47-0.4,0.47
	C50.93,192.85,50.76,192.65,50.76,192.38 M51.42,194.88c0,0,0,0.87,0.02,1.79c0.02,1.48,0.08,1.89,0.1,2.01
	c0.04,0.06,0.06,0.12,0.06,0.19c0,0.16-0.11,0.3-0.25,0.3c-0.05,0-0.2-0.01-0.28-0.24l-0.04-0.18l-0.05-0.49
	c-0.01-0.34-0.04-0.8-0.05-1.39c-0.02-0.99-0.02-1.98-0.02-1.99c0-0.16,0.11-0.3,0.25-0.3C51.31,194.58,51.42,194.71,51.42,194.88"
	/>
<path class="st0" d="M56.78,195.88c0.24,1.17-0.03,2.8-0.79,3.28c-0.12,0.07-0.27,0.02-0.34-0.13c-0.06-0.13-0.02-0.31,0.1-0.38
	c0.49-0.29,0.75-1.59,0.54-2.63c-0.06-0.31-0.23-0.84-0.6-0.84c-0.25,0-0.48,0.16-0.69,0.5c-0.19,0.31-0.36,0.75-0.51,1.3
	c-0.26,0.97-0.35,1.95-0.36,1.96c0,0.12-0.09,0.22-0.19,0.25h-0.06c-0.05,0-0.11-0.02-0.15-0.06c-0.1-0.09-0.11-0.22-0.12-0.38
	l-0.04-0.46c-0.01-0.31-0.02-0.74-0.02-1.27c-0.03-0.9-0.03-1.8-0.03-1.8c0-0.16,0.11-0.3,0.25-0.3c0.14,0,0.25,0.12,0.25,0.28
	c0,0.52,0.01,1.03,0.01,1.52c0.16-0.58,0.36-1.05,0.57-1.39c0.31-0.5,0.68-0.75,1.09-0.75C56.21,194.58,56.61,195.05,56.78,195.88"
	/>
<path class="st0" d="M61.73,198.06c0.1,0.12,0.09,0.31-0.01,0.41c-0.43,0.46-0.89,0.69-1.34,0.69c-0.07,0-0.15,0-0.23-0.01
	c-0.4-0.07-0.73-0.34-0.95-0.77c-0.22-0.43-0.31-0.96-0.25-1.56c0.11-1.4,0.85-2.17,1.5-2.2c0.49-0.03,0.86,0.34,0.95,0.95
	c0.03,0.16-0.06,0.31-0.2,0.34c-0.14,0.03-0.26-0.07-0.29-0.24c-0.05-0.31-0.2-0.47-0.44-0.46c-0.44,0.02-0.94,0.61-1.04,1.67
	c-0.08,0.9,0.25,1.59,0.79,1.68c0.36,0.07,0.78-0.12,1.15-0.53C61.48,197.93,61.65,197.94,61.73,198.06"/>
<path class="st0" d="M66.51,198.06c0.09,0.12,0.09,0.31-0.02,0.41c-0.41,0.46-0.89,0.69-1.34,0.69c-0.07,0-0.15,0-0.23-0.01
	c-0.39-0.07-0.73-0.34-0.95-0.77c-0.21-0.43-0.3-0.96-0.25-1.56c0.12-1.4,0.85-2.17,1.51-2.2c0.49-0.03,0.85,0.34,0.95,0.95
	c0.06,0.43-0.01,0.84-0.24,1.2c-0.16,0.27-0.41,0.5-0.74,0.71c-0.32,0.22-0.68,0.36-0.89,0.43c0.14,0.37,0.38,0.62,0.68,0.67
	c0.36,0.07,0.78-0.12,1.15-0.53C66.26,197.93,66.41,197.94,66.51,198.06 M64.21,197.32c0.48-0.16,1.64-0.66,1.48-1.65
	c-0.04-0.3-0.19-0.47-0.41-0.47c-0.01,0-0.01,0-0.03,0.02c-0.43,0.01-0.94,0.61-1.03,1.67C64.21,197.04,64.21,197.18,64.21,197.32"
	/>
<path class="st0" d="M69.44,198.9c0,0.16-0.11,0.3-0.25,0.3c-0.08,0-0.2-0.03-0.31-0.16c-0.12-0.18-0.3-0.56-0.38-1.95
	c-0.04-0.8-0.05-1.83-0.03-3.07c0.04-2.12,0.16-4.16,0.16-4.19c0.01-0.16,0.12-0.28,0.26-0.27c0.14,0.02,0.25,0.15,0.24,0.31
	c0,0.03-0.12,2.08-0.16,4.21c-0.02,1.24-0.01,2.26,0.03,3.02c0.07,1.15,0.2,1.45,0.24,1.51C69.35,198.64,69.44,198.76,69.44,198.9"
	/>
<path class="st0" d="M74.06,198.06c0.09,0.12,0.09,0.31-0.02,0.41c-0.41,0.46-0.89,0.69-1.34,0.69c-0.07,0-0.15,0-0.22-0.01
	c-0.39-0.07-0.73-0.34-0.95-0.77c-0.21-0.43-0.3-0.96-0.25-1.56c0.12-1.4,0.85-2.17,1.51-2.2c0.49-0.03,0.85,0.34,0.95,0.95
	c0.06,0.43-0.01,0.84-0.24,1.2c-0.16,0.27-0.41,0.5-0.74,0.71c-0.32,0.22-0.68,0.36-0.89,0.43c0.14,0.37,0.38,0.62,0.68,0.67
	c0.36,0.07,0.78-0.12,1.15-0.53C73.81,197.93,73.96,197.94,74.06,198.06 M71.76,197.32c0.48-0.16,1.64-0.66,1.48-1.65
	c-0.04-0.3-0.19-0.47-0.41-0.47c-0.01,0-0.01,0-0.02,0.02c-0.43,0.01-0.94,0.61-1.03,1.67C71.76,197.04,71.76,197.18,71.76,197.32"
	/>
<path class="st0" d="M81.11,195.55c0.15,0.49,0.19,1.21,0.07,1.93c-0.11,0.75-0.34,1.34-0.64,1.62c-0.1,0.1-0.26,0.09-0.35-0.03
	c-0.09-0.13-0.08-0.31,0.04-0.41c0.2-0.19,0.38-0.69,0.46-1.28c0.09-0.62,0.06-1.24-0.05-1.64c-0.12-0.41-0.3-0.41-0.36-0.41
	c-0.3,0-0.65,0.44-0.96,1.25c-0.27,0.68-0.43,1.37-0.43,1.39c-0.03,0.15-0.15,0.25-0.29,0.22c-0.12-0.03-0.21-0.18-0.2-0.33
	c0-0.01,0.05-0.52,0.04-1.11c-0.01-0.71-0.11-1.23-0.28-1.45c-0.08-0.09-0.14-0.13-0.23-0.13c-0.21,0-0.56,0.47-0.88,1.79
	c-0.23,0.97-0.34,1.96-0.35,1.98c-0.01,0.15-0.11,0.25-0.24,0.25h-0.01c-0.14,0-0.24-0.13-0.24-0.28l-0.16-3.69
	c-0.01-0.16,0.1-0.31,0.24-0.31c0.14-0.01,0.25,0.1,0.26,0.28l0.06,1.45c0.35-1.37,0.78-2.05,1.31-2.05h0.01
	c0.23,0,0.43,0.12,0.59,0.32c0.19,0.27,0.32,0.69,0.38,1.28c0.4-0.96,0.86-1.46,1.36-1.46C80.51,194.74,80.89,194.84,81.11,195.55"
	/>
<path class="st0" d="M86.05,198.06c0.09,0.12,0.09,0.31-0.02,0.41c-0.41,0.46-0.89,0.69-1.34,0.69c-0.07,0-0.15,0-0.22-0.01
	c-0.39-0.07-0.73-0.34-0.95-0.77c-0.21-0.43-0.3-0.96-0.25-1.56c0.12-1.4,0.85-2.17,1.51-2.2c0.49-0.03,0.85,0.34,0.95,0.95
	c0.06,0.43-0.01,0.84-0.24,1.2c-0.16,0.27-0.41,0.5-0.74,0.71c-0.32,0.22-0.68,0.36-0.89,0.43c0.14,0.37,0.38,0.62,0.68,0.67
	c0.36,0.07,0.78-0.12,1.15-0.53C85.8,197.93,85.95,197.94,86.05,198.06 M83.75,197.32c0.48-0.16,1.64-0.66,1.48-1.65
	c-0.04-0.3-0.19-0.47-0.41-0.47c-0.01,0-0.01,0-0.02,0.02c-0.43,0.01-0.94,0.61-1.03,1.67C83.75,197.04,83.75,197.18,83.75,197.32"
	/>
<path class="st0" d="M90.63,197.96c0,0.41-0.19,0.75-0.53,0.97c-0.23,0.15-0.51,0.22-0.81,0.22c-0.05,0-0.1,0-0.15-0.01
	c-0.38-0.03-0.73-0.16-1.03-0.4c-0.11-0.09-0.15-0.28-0.07-0.41s0.24-0.18,0.35-0.09c0.5,0.4,1.14,0.38,1.48,0.18
	c0.18-0.12,0.26-0.27,0.26-0.46c0-0.32-0.41-0.56-0.8-0.81c-0.3-0.18-0.59-0.35-0.8-0.59c-0.29-0.33-0.36-0.69-0.25-1.11
	c0.14-0.52,0.5-0.84,0.95-0.84h0.01c0.26,0.01,0.52,0.13,0.75,0.34c0.24,0.24,0.41,0.58,0.53,0.98c0.04,0.16-0.04,0.32-0.16,0.37
	c-0.14,0.05-0.28-0.04-0.31-0.19c-0.18-0.66-0.55-0.89-0.81-0.9c-0.23,0-0.41,0.16-0.48,0.43c-0.11,0.4,0.18,0.62,0.8,1
	C90.06,196.93,90.63,197.28,90.63,197.96"/>
<path class="st0" d="M92.43,192.38c0-0.25,0.18-0.47,0.4-0.47c0.21,0,0.4,0.22,0.4,0.47c0,0.27-0.19,0.47-0.4,0.47
	C92.61,192.85,92.43,192.65,92.43,192.38 M93.1,194.88c0,0,0,0.87,0.02,1.79c0.02,1.48,0.07,1.89,0.1,2.01
	c0.04,0.06,0.06,0.12,0.06,0.19c0,0.16-0.11,0.3-0.25,0.3c-0.05,0-0.2-0.01-0.28-0.24l-0.04-0.18l-0.05-0.49
	c-0.01-0.34-0.04-0.8-0.05-1.39c-0.02-0.99-0.02-1.98-0.02-1.99c0-0.16,0.11-0.3,0.25-0.3C92.98,194.58,93.1,194.71,93.1,194.88"/>
<path class="st0" d="M102.8,194.74c0.15,0.35,0.21,0.99,0.19,1.68c-0.02,0.46-0.11,1.31-0.45,1.96c-0.29,0.53-0.68,0.8-1.14,0.8
	c-0.56,0-1.03-0.54-1.29-1.49c-0.3-1.11-0.26-2.55,0.32-3.05c0.11-0.1,0.28-0.07,0.35,0.06c0.09,0.13,0.06,0.33-0.05,0.41
	c-0.16,0.13-0.28,0.47-0.3,0.93c-0.04,0.46,0.03,1,0.15,1.48c0.19,0.68,0.49,1.08,0.81,1.08c0.29,0,0.53-0.16,0.71-0.52
	c0.48-0.92,0.44-2.58,0.24-3.07c-0.06-0.15-0.01-0.33,0.11-0.4C102.59,194.54,102.74,194.6,102.8,194.74"/>
<path class="st0" d="M107.75,198.06c0.09,0.12,0.09,0.31-0.02,0.41c-0.41,0.46-0.89,0.69-1.34,0.69c-0.07,0-0.15,0-0.23-0.01
	c-0.39-0.07-0.73-0.34-0.95-0.77c-0.21-0.43-0.3-0.96-0.25-1.56c0.12-1.4,0.85-2.17,1.51-2.2c0.49-0.03,0.85,0.34,0.95,0.95
	c0.06,0.43-0.01,0.84-0.24,1.2c-0.16,0.27-0.41,0.5-0.74,0.71c-0.32,0.22-0.68,0.36-0.89,0.43c0.14,0.37,0.38,0.62,0.68,0.67
	c0.36,0.07,0.78-0.12,1.15-0.53C107.5,197.93,107.65,197.94,107.75,198.06 M105.45,197.32c0.48-0.16,1.64-0.66,1.48-1.65
	c-0.04-0.3-0.19-0.47-0.41-0.47c-0.01,0-0.01,0-0.03,0.02c-0.43,0.01-0.94,0.61-1.03,1.67
	C105.45,197.04,105.45,197.18,105.45,197.32"/>
<path class="st0" d="M117.2,198.06c0.09,0.12,0.09,0.31-0.02,0.41c-0.41,0.46-0.89,0.69-1.34,0.69c-0.07,0-0.15,0-0.23-0.01
	c-0.39-0.07-0.73-0.34-0.95-0.77c-0.21-0.43-0.3-0.96-0.25-1.56c0.12-1.4,0.85-2.17,1.51-2.2c0.49-0.03,0.85,0.34,0.95,0.95
	c0.06,0.43-0.01,0.84-0.24,1.2c-0.16,0.27-0.41,0.5-0.74,0.71c-0.32,0.22-0.68,0.36-0.89,0.43c0.14,0.37,0.38,0.62,0.68,0.67
	c0.36,0.07,0.78-0.12,1.15-0.53C116.95,197.93,117.1,197.94,117.2,198.06 M114.9,197.32c0.48-0.16,1.64-0.66,1.48-1.65
	c-0.04-0.3-0.19-0.47-0.41-0.47c-0.01,0-0.01,0-0.03,0.02c-0.43,0.01-0.94,0.61-1.03,1.67C114.9,197.04,114.9,197.18,114.9,197.32"
	/>
<path class="st0" d="M122.12,194.74c0.15,0.35,0.21,0.99,0.19,1.68c-0.02,0.46-0.11,1.31-0.45,1.96c-0.29,0.53-0.68,0.8-1.14,0.8
	c-0.56,0-1.03-0.54-1.29-1.49c-0.3-1.11-0.26-2.55,0.33-3.05c0.11-0.1,0.27-0.07,0.35,0.06c0.09,0.13,0.06,0.33-0.05,0.41
	c-0.16,0.13-0.28,0.47-0.3,0.93c-0.04,0.46,0.02,1,0.15,1.48c0.19,0.68,0.49,1.08,0.81,1.08c0.29,0,0.53-0.16,0.71-0.52
	c0.48-0.92,0.44-2.58,0.24-3.07c-0.06-0.15-0.01-0.33,0.11-0.4C121.91,194.54,122.06,194.6,122.12,194.74"/>
<path class="st0" d="M127.08,198.06c0.1,0.12,0.09,0.31-0.01,0.41c-0.43,0.46-0.89,0.69-1.34,0.69c-0.07,0-0.15,0-0.23-0.01
	c-0.4-0.07-0.73-0.34-0.95-0.77c-0.23-0.43-0.31-0.96-0.25-1.56c0.11-1.4,0.85-2.17,1.5-2.2c0.49-0.03,0.86,0.34,0.95,0.95
	c0.03,0.16-0.06,0.31-0.2,0.34c-0.14,0.03-0.26-0.07-0.29-0.24c-0.05-0.31-0.2-0.47-0.44-0.46c-0.44,0.02-0.94,0.61-1.04,1.67
	c-0.08,0.9,0.25,1.59,0.79,1.68c0.36,0.07,0.78-0.12,1.15-0.53C126.83,197.93,126.99,197.94,127.08,198.06"/>
<path class="st0" d="M128.94,192.38c0-0.25,0.18-0.47,0.4-0.47c0.21,0,0.4,0.22,0.4,0.47c0,0.27-0.19,0.47-0.4,0.47
	C129.12,192.85,128.94,192.65,128.94,192.38 M129.61,194.88c0,0,0,0.87,0.02,1.79c0.02,1.48,0.07,1.89,0.1,2.01
	c0.04,0.06,0.06,0.12,0.06,0.19c0,0.16-0.11,0.3-0.25,0.3c-0.05,0-0.2-0.01-0.28-0.24l-0.04-0.18l-0.05-0.49
	c-0.01-0.34-0.04-0.8-0.05-1.39c-0.02-0.99-0.02-1.98-0.02-1.99c0-0.16,0.11-0.3,0.25-0.3
	C129.49,194.58,129.61,194.71,129.61,194.88"/>
<path class="st0" d="M132.64,198.9c0,0.16-0.11,0.3-0.25,0.3c-0.08,0-0.2-0.03-0.31-0.16c-0.12-0.18-0.3-0.56-0.38-1.95
	c-0.04-0.8-0.05-1.83-0.02-3.07c0.04-2.12,0.16-4.16,0.16-4.19c0.01-0.16,0.12-0.28,0.26-0.27c0.14,0.02,0.25,0.15,0.24,0.31
	c0,0.03-0.12,2.08-0.16,4.21c-0.02,1.24-0.01,2.26,0.03,3.02c0.07,1.15,0.2,1.45,0.24,1.51
	C132.55,198.64,132.64,198.76,132.64,198.9"/>
<path class="st0" d="M142.71,196.03c0.11,0.56,0.11,1.21-0.03,1.8c-0.15,0.63-0.43,1.11-0.78,1.33c-0.13,0.07-0.28,0.01-0.34-0.13
	c-0.06-0.13-0.01-0.31,0.11-0.38c0.22-0.15,0.41-0.5,0.51-0.97c0.11-0.47,0.12-1.03,0.02-1.49c-0.09-0.46-0.31-1-0.86-1
	c-0.24,0-0.46,0.16-0.68,0.5c-0.2,0.31-0.38,0.74-0.53,1.3c-0.26,0.96-0.35,1.95-0.35,1.96c-0.01,0.12-0.09,0.22-0.2,0.25h-0.05
	c-0.07,0-0.15-0.03-0.2-0.1c-0.06-0.09-0.09-0.15-0.14-1.51c-0.02-0.84-0.05-1.87-0.05-2.85c0-1.18,0.01-2.23,0.05-3.04
	c0.06-1.37,0.18-1.77,0.24-1.96c0.06-0.15,0.21-0.21,0.34-0.13c0.12,0.06,0.18,0.24,0.12,0.38c-0.05,0.12-0.14,0.5-0.2,1.68
	c-0.04,0.77-0.05,1.77-0.05,2.91c0,0.77,0.01,1.54,0.02,2.19c0.16-0.59,0.36-1.08,0.58-1.42c0.31-0.5,0.68-0.75,1.09-0.75
	c0.35,0,0.68,0.15,0.91,0.44C142.47,195.27,142.62,195.61,142.71,196.03"/>
<path class="st0" d="M147.79,194.46c0,0.03-0.11,3.31-0.05,4.94c0.01,0.16-0.1,0.3-0.24,0.31h-0.01c-0.12,0-0.24-0.12-0.25-0.28
	c-0.01-0.49-0.03-1.11-0.03-1.73c-0.22,0.4-0.46,0.72-0.7,0.96c-0.39,0.38-0.73,0.47-0.96,0.47c-0.05,0-0.1,0-0.15-0.01
	c-0.22-0.03-0.43-0.16-0.58-0.37c-0.15-0.19-0.24-0.44-0.29-0.72c-0.06-0.46-0.02-0.95,0.12-1.42c0.15-0.44,0.39-0.86,0.69-1.18
	c0.54-0.61,1.24-0.86,1.93-0.72c0-0.16,0.01-0.25,0.01-0.28c0-0.16,0.12-0.28,0.26-0.28C147.69,194.17,147.79,194.3,147.79,194.46
	 M147.24,196.51c0-0.46,0.01-0.87,0.02-1.21c-0.56-0.13-1.14,0.07-1.58,0.56c-0.5,0.55-0.76,1.36-0.65,2.08
	c0.05,0.32,0.21,0.56,0.44,0.6c0.39,0.07,1.05-0.43,1.74-2.01C147.22,196.53,147.23,196.51,147.24,196.51"/>
<path class="st0" d="M153.27,197.97c0.01,2.26-0.24,3.76-0.76,4.46c-0.24,0.31-0.51,0.47-0.85,0.47c-0.14,0-0.25-0.13-0.25-0.3
	c0-0.16,0.11-0.29,0.25-0.29c0.19,0,0.34-0.09,0.48-0.28c0.24-0.31,0.4-0.86,0.51-1.65c0.09-0.65,0.14-1.46,0.12-2.41
	c0-0.38-0.01-0.75-0.02-1.11l-0.04,0.1c-0.16,0.62-0.36,1.11-0.6,1.48c-0.31,0.49-0.68,0.74-1.09,0.74c-0.26,0-0.5-0.12-0.69-0.35
	c-0.16-0.19-0.29-0.46-0.39-0.8c-0.3-1.11-0.15-2.83,0.5-3.4c0.11-0.1,0.26-0.07,0.35,0.06c0.07,0.13,0.05,0.32-0.06,0.41
	c-0.41,0.35-0.56,1.79-0.3,2.74c0.09,0.34,0.26,0.74,0.59,0.74c0.25,0,0.48-0.16,0.69-0.5c0.2-0.31,0.38-0.75,0.53-1.3
	c0.27-0.97,0.38-1.95,0.38-1.95c0.01-0.16,0.12-0.27,0.25-0.27c0.12,0,0.23,0.1,0.25,0.25
	C153.11,194.84,153.26,196.32,153.27,197.97"/>
<path class="st0" d="M158.21,194.74c0.15,0.35,0.21,0.99,0.19,1.68c-0.02,0.46-0.11,1.31-0.45,1.96c-0.29,0.53-0.68,0.8-1.14,0.8
	c-0.56,0-1.03-0.54-1.29-1.49c-0.3-1.11-0.26-2.55,0.33-3.05c0.11-0.1,0.27-0.07,0.35,0.06c0.09,0.13,0.06,0.33-0.05,0.41
	c-0.16,0.13-0.28,0.47-0.3,0.93c-0.04,0.46,0.02,1,0.15,1.48c0.19,0.68,0.49,1.08,0.81,1.08c0.29,0,0.53-0.16,0.71-0.52
	c0.48-0.92,0.44-2.58,0.24-3.07c-0.06-0.15-0.01-0.33,0.11-0.4C157.99,194.54,158.14,194.6,158.21,194.74"/>
<path class="st0" d="M163.55,194.46c0,0.03-0.11,3.31-0.05,4.94c0.01,0.16-0.1,0.3-0.24,0.31h-0.01c-0.12,0-0.24-0.12-0.25-0.28
	c-0.01-0.49-0.03-1.11-0.03-1.73c-0.22,0.4-0.46,0.72-0.7,0.96c-0.39,0.38-0.73,0.47-0.96,0.47c-0.05,0-0.1,0-0.15-0.01
	c-0.22-0.03-0.43-0.16-0.58-0.37c-0.15-0.19-0.24-0.44-0.29-0.72c-0.06-0.46-0.02-0.95,0.12-1.42c0.15-0.44,0.39-0.86,0.69-1.18
	c0.54-0.61,1.24-0.86,1.93-0.72c0-0.16,0.01-0.25,0.01-0.28c0-0.16,0.12-0.28,0.26-0.28C163.45,194.17,163.55,194.3,163.55,194.46
	 M163,196.51c0-0.46,0.01-0.87,0.02-1.21c-0.56-0.13-1.14,0.07-1.58,0.56c-0.5,0.55-0.76,1.36-0.65,2.08
	c0.05,0.32,0.21,0.56,0.44,0.6c0.39,0.07,1.05-0.43,1.74-2.01C162.97,196.53,162.99,196.51,163,196.51"/>
<path class="st0" d="M168.83,195.88c0.24,1.17-0.03,2.8-0.79,3.28c-0.12,0.07-0.28,0.02-0.34-0.13c-0.06-0.13-0.02-0.31,0.1-0.38
	c0.49-0.29,0.75-1.59,0.54-2.63c-0.06-0.31-0.23-0.84-0.6-0.84c-0.25,0-0.48,0.16-0.69,0.5c-0.19,0.31-0.36,0.75-0.51,1.3
	c-0.26,0.97-0.35,1.95-0.36,1.96c0,0.12-0.09,0.22-0.19,0.25h-0.06c-0.05,0-0.11-0.02-0.15-0.06c-0.1-0.09-0.11-0.22-0.12-0.38
	l-0.04-0.46c-0.01-0.31-0.03-0.74-0.03-1.27c-0.03-0.9-0.03-1.8-0.03-1.8c0-0.16,0.11-0.3,0.25-0.3s0.25,0.12,0.25,0.28
	c0,0.52,0.01,1.03,0.01,1.52c0.16-0.58,0.36-1.05,0.58-1.39c0.31-0.5,0.67-0.75,1.09-0.75
	C168.27,194.58,168.67,195.05,168.83,195.88"/>
<path class="st0" d="M178.52,195.38c0.21,0.4,0.33,0.92,0.31,1.48c-0.02,0.61-0.18,1.17-0.45,1.6c-0.33,0.5-0.78,0.77-1.31,0.77
	c-0.45,0-0.83-0.22-1.09-0.65c-0.21-0.35-0.33-0.86-0.34-1.39c0-0.62,0.16-1.24,0.44-1.71c0.33-0.55,0.8-0.86,1.34-0.86h0.02
	C177.88,194.64,178.27,194.92,178.52,195.38 M178.09,195.7c-0.16-0.31-0.39-0.47-0.68-0.5c-0.48,0.01-0.76,0.34-0.93,0.61
	c-0.23,0.37-0.35,0.87-0.35,1.37c0.01,0.41,0.09,0.78,0.25,1.05c0.16,0.27,0.39,0.4,0.68,0.4c0.84,0,1.24-0.93,1.26-1.79
	C178.33,196.39,178.26,196,178.09,195.7"/>
<path class="st0" d="M184.06,195.88c0.24,1.17-0.03,2.8-0.79,3.28c-0.12,0.07-0.28,0.02-0.34-0.13c-0.06-0.13-0.02-0.31,0.1-0.38
	c0.49-0.29,0.75-1.59,0.54-2.63c-0.06-0.31-0.23-0.84-0.6-0.84c-0.25,0-0.48,0.16-0.69,0.5c-0.19,0.31-0.36,0.75-0.51,1.3
	c-0.26,0.97-0.35,1.95-0.36,1.96c0,0.12-0.09,0.22-0.19,0.25h-0.06c-0.05,0-0.11-0.02-0.15-0.06c-0.1-0.09-0.11-0.22-0.12-0.38
	l-0.04-0.46c-0.01-0.31-0.02-0.74-0.02-1.27c-0.03-0.9-0.03-1.8-0.03-1.8c0-0.16,0.11-0.3,0.25-0.3c0.14,0,0.25,0.12,0.25,0.28
	c0,0.52,0.01,1.03,0.01,1.52c0.16-0.58,0.36-1.05,0.58-1.39c0.31-0.5,0.68-0.75,1.09-0.75C183.5,194.58,183.9,195.05,184.06,195.88"
	/>
<path class="st0" d="M189.41,194.46c0,0.03-0.11,3.31-0.05,4.94c0.01,0.16-0.1,0.3-0.24,0.31h-0.01c-0.12,0-0.24-0.12-0.25-0.28
	c-0.01-0.49-0.03-1.11-0.03-1.73c-0.22,0.4-0.46,0.72-0.7,0.96c-0.39,0.38-0.73,0.47-0.96,0.47c-0.05,0-0.1,0-0.15-0.01
	c-0.22-0.03-0.43-0.16-0.58-0.37c-0.15-0.19-0.24-0.44-0.29-0.72c-0.06-0.46-0.02-0.95,0.12-1.42c0.15-0.44,0.39-0.86,0.69-1.18
	c0.54-0.61,1.24-0.86,1.93-0.72c0-0.16,0.01-0.25,0.01-0.28c0-0.16,0.12-0.28,0.26-0.28C189.31,194.17,189.41,194.3,189.41,194.46
	 M188.86,196.51c0-0.46,0.01-0.87,0.02-1.21c-0.56-0.13-1.14,0.07-1.58,0.56c-0.5,0.55-0.76,1.36-0.65,2.08
	c0.05,0.32,0.21,0.56,0.44,0.6c0.39,0.07,1.05-0.43,1.74-2.01C188.83,196.53,188.84,196.51,188.86,196.51"/>
<path class="st0" d="M194.89,197.97c0.01,2.26-0.24,3.76-0.76,4.46c-0.24,0.31-0.51,0.47-0.85,0.47c-0.14,0-0.25-0.13-0.25-0.3
	c0-0.16,0.11-0.29,0.25-0.29c0.19,0,0.34-0.09,0.48-0.28c0.24-0.31,0.4-0.86,0.51-1.65c0.09-0.65,0.14-1.46,0.12-2.41
	c0-0.38-0.01-0.75-0.02-1.11l-0.04,0.1c-0.16,0.62-0.36,1.11-0.6,1.48c-0.31,0.49-0.68,0.74-1.09,0.74c-0.26,0-0.5-0.12-0.69-0.35
	c-0.16-0.19-0.29-0.46-0.39-0.8c-0.3-1.11-0.15-2.83,0.5-3.4c0.11-0.1,0.26-0.07,0.35,0.06c0.08,0.13,0.05,0.32-0.06,0.41
	c-0.41,0.35-0.56,1.79-0.3,2.74c0.09,0.34,0.26,0.74,0.59,0.74c0.25,0,0.48-0.16,0.69-0.5c0.2-0.31,0.38-0.75,0.53-1.3
	c0.27-0.97,0.38-1.95,0.38-1.95c0.01-0.16,0.13-0.27,0.25-0.27s0.23,0.1,0.25,0.25C194.73,194.84,194.88,196.32,194.89,197.97"/>
<path class="st0" d="M197.42,194.88c0,0,0,0.87,0.02,1.79c0.02,1.48,0.07,1.89,0.1,2.01c0.04,0.06,0.06,0.12,0.06,0.19
	c0,0.16-0.11,0.3-0.25,0.3c-0.05,0-0.2-0.01-0.27-0.24l-0.04-0.18l-0.05-0.49c-0.01-0.34-0.04-0.8-0.05-1.39
	c-0.02-0.99-0.02-1.98-0.02-1.99c0-0.16,0.11-0.3,0.25-0.3S197.42,194.71,197.42,194.88"/>
<g>
	<g>
		<defs>
			<path id="SVGID_1_" d="M60.23,0.28C49.27,2.54,43.12,17.68,46.5,34.09c3.38,16.42,15.01,27.89,25.97,25.64
				c10.96-2.26,17.11-17.39,13.73-33.81C83.11,10.89,73.1,0,63.02,0C62.09,0,61.16,0.09,60.23,0.28"/>
		</defs>
		<clipPath id="SVGID_00000107555411689909093350000006553596129018971275_">
			<use xlink:href="#SVGID_1_"  style="overflow:visible;"/>
		</clipPath>
		
			<linearGradient id="SVGID_00000147898294832738781620000003469779152209520027_" gradientUnits="userSpaceOnUse" x1="-397.7095" y1="602.5947" x2="-396.7095" y2="602.5947" gradientTransform="matrix(198.3307 0 0 -198.3307 78879.3672 119544)">
			<stop  offset="0" style="stop-color:#F06666"/>
			<stop  offset="0.3536" style="stop-color:#F06666"/>
			<stop  offset="0.4866" style="stop-color:#DC7E81"/>
			<stop  offset="0.6806" style="stop-color:#C19DA4"/>
			<stop  offset="0.7773" style="stop-color:#B7A9B1"/>
			<stop  offset="0.933" style="stop-color:#AAB8C3"/>
			<stop  offset="1" style="stop-color:#AAB8C3"/>
		</linearGradient>
		
			<rect x="43.12" style="clip-path:url(#SVGID_00000107555411689909093350000006553596129018971275_);fill:url(#SVGID_00000147898294832738781620000003469779152209520027_);" width="46.46" height="61.99"/>
	</g>
	<g>
		<defs>
			<path id="SVGID_00000089567848826280701720000001339786418404434360_" d="M13.07,44.17C3.22,48.23,0,63.1,5.88,77.4
				c5.88,14.3,18.64,22.61,28.49,18.56c9.85-4.05,13.07-18.93,7.19-33.23c-4.87-11.85-14.46-19.58-23.21-19.58
				C16.54,43.15,14.76,43.48,13.07,44.17"/>
		</defs>
		<clipPath id="SVGID_00000063613447368221990030000010007541702675358084_">
			<use xlink:href="#SVGID_00000089567848826280701720000001339786418404434360_"  style="overflow:visible;"/>
		</clipPath>
		
			<linearGradient id="SVGID_00000151523475778973294790000003472266643662999453_" gradientUnits="userSpaceOnUse" x1="-397.7095" y1="602.592" x2="-396.7095" y2="602.592" gradientTransform="matrix(198.3307 0 0 -198.3307 78879.3672 119584.0625)">
			<stop  offset="0" style="stop-color:#F06666"/>
			<stop  offset="0.3536" style="stop-color:#F06666"/>
			<stop  offset="0.4866" style="stop-color:#DC7E81"/>
			<stop  offset="0.6806" style="stop-color:#C19DA4"/>
			<stop  offset="0.7773" style="stop-color:#B7A9B1"/>
			<stop  offset="0.933" style="stop-color:#AAB8C3"/>
			<stop  offset="1" style="stop-color:#AAB8C3"/>
		</linearGradient>
		
			<rect y="43.15" style="clip-path:url(#SVGID_00000063613447368221990030000010007541702675358084_);fill:url(#SVGID_00000151523475778973294790000003472266643662999453_);" width="47.44" height="56.87"/>
	</g>
	<g>
		<defs>
			<path id="SVGID_00000060008067077998057320000012141682714175459240_" d="M114.21,25.92c-3.38,16.42,2.77,31.55,13.73,33.81
				c10.96,2.26,22.59-9.22,25.97-25.64c3.38-16.41-2.77-31.55-13.73-33.81C139.26,0.09,138.32,0,137.39,0
				C127.31,0,117.31,10.89,114.21,25.92"/>
		</defs>
		<clipPath id="SVGID_00000039822231373470880510000006409942137651070392_">
			<use xlink:href="#SVGID_00000060008067077998057320000012141682714175459240_"  style="overflow:visible;"/>
		</clipPath>
		
			<linearGradient id="SVGID_00000114069872774684576820000006463567617969809840_" gradientUnits="userSpaceOnUse" x1="-397.7095" y1="602.5947" x2="-396.7095" y2="602.5947" gradientTransform="matrix(198.3307 0 0 -198.3307 78879.3672 119544)">
			<stop  offset="0" style="stop-color:#F06666"/>
			<stop  offset="0.3536" style="stop-color:#F06666"/>
			<stop  offset="0.4866" style="stop-color:#DC7E81"/>
			<stop  offset="0.6806" style="stop-color:#C19DA4"/>
			<stop  offset="0.7773" style="stop-color:#B7A9B1"/>
			<stop  offset="0.933" style="stop-color:#AAB8C3"/>
			<stop  offset="1" style="stop-color:#AAB8C3"/>
		</linearGradient>
		
			<rect x="110.83" style="clip-path:url(#SVGID_00000039822231373470880510000006409942137651070392_);fill:url(#SVGID_00000114069872774684576820000006463567617969809840_);" width="46.46" height="61.99"/>
	</g>
	<g>
		<defs>
			<path id="SVGID_00000001652000416110220740000007701481855421058729_" d="M158.86,62.73c-5.88,14.3-2.66,29.18,7.19,33.23
				c9.85,4.05,22.61-4.26,28.49-18.56c5.88-14.3,2.66-29.18-7.19-33.23c-1.69-0.7-3.46-1.03-5.27-1.03
				C173.32,43.15,163.73,50.88,158.86,62.73"/>
		</defs>
		<clipPath id="SVGID_00000037657476865007159710000005933915237899460508_">
			<use xlink:href="#SVGID_00000001652000416110220740000007701481855421058729_"  style="overflow:visible;"/>
		</clipPath>
		
			<linearGradient id="SVGID_00000004540182836979377290000002636047874158260917_" gradientUnits="userSpaceOnUse" x1="-397.7095" y1="602.592" x2="-396.7095" y2="602.592" gradientTransform="matrix(198.3307 0 0 -198.3307 78879.3672 119584.0625)">
			<stop  offset="0" style="stop-color:#F06666"/>
			<stop  offset="0.3536" style="stop-color:#F06666"/>
			<stop  offset="0.4866" style="stop-color:#DC7E81"/>
			<stop  offset="0.6806" style="stop-color:#C19DA4"/>
			<stop  offset="0.7773" style="stop-color:#B7A9B1"/>
			<stop  offset="0.933" style="stop-color:#AAB8C3"/>
			<stop  offset="1" style="stop-color:#AAB8C3"/>
		</linearGradient>
		
			<rect x="152.97" y="43.15" style="clip-path:url(#SVGID_00000037657476865007159710000005933915237899460508_);fill:url(#SVGID_00000004540182836979377290000002636047874158260917_);" width="47.44" height="56.87"/>
	</g>
	<g>
		<defs>
			<path id="SVGID_00000110446076831575545930000011555375200048381369_" d="M35.67,138.44c0,18.24,15.02,21.81,21.46,21.81
				c20.87,0,23.79-36.65,28.47-51.78c4.68-15.13,16.23-16.29,16.23-16.29c0.34-12.83,11.9-15.69,11.9-15.69
				c-1.31,3.45,0.34,13.46,10.69,19.43c10.35,5.97,9.28,11.51,8.89,15.69c-0.39,4.18,4.08,8.16,4.27,10.49
				c0.19,2.33-2.15,2.34-2.15,2.34c-1.88,9.42-15.36,8.56-15.36,8.56s-7.8,27.25,24.31,27.25c6.43,0,21.45-3.57,21.45-21.81
				c0-18.24-25.03-72.23-65.08-72.23C60.7,66.21,35.67,120.2,35.67,138.44"/>
		</defs>
		<clipPath id="SVGID_00000098928697875913067790000013380681070034107018_">
			<use xlink:href="#SVGID_00000110446076831575545930000011555375200048381369_"  style="overflow:visible;"/>
		</clipPath>
		
			<linearGradient id="SVGID_00000083081792374946626050000000007717485866178721_" gradientUnits="userSpaceOnUse" x1="-397.7095" y1="602.5997" x2="-396.7095" y2="602.5997" gradientTransform="matrix(198.3307 0 0 -198.3307 78879.3672 119627.2266)">
			<stop  offset="0" style="stop-color:#F06666"/>
			<stop  offset="0.3536" style="stop-color:#F06666"/>
			<stop  offset="0.4866" style="stop-color:#DC7E81"/>
			<stop  offset="0.6806" style="stop-color:#C19DA4"/>
			<stop  offset="0.7773" style="stop-color:#B7A9B1"/>
			<stop  offset="0.933" style="stop-color:#AAB8C3"/>
			<stop  offset="1" style="stop-color:#AAB8C3"/>
		</linearGradient>
		
			<rect x="35.67" y="66.21" style="clip-path:url(#SVGID_00000098928697875913067790000013380681070034107018_);fill:url(#SVGID_00000083081792374946626050000000007717485866178721_);" width="130.15" height="94.04"/>
	</g>
	<g>
		<defs>
			<polygon id="SVGID_00000169556253369161582590000017918140625785063334_" points="35.3,166.4 35.3,183.1 37.98,183.1 
				44.61,183.1 44.61,182.26 37.98,182.26 37.98,174.13 43.41,174.13 43.41,173.29 37.98,173.29 37.98,167.24 44.61,167.24 
				44.61,166.4 			"/>
		</defs>
		<clipPath id="SVGID_00000159453444234151729440000010416515043175945650_">
			<use xlink:href="#SVGID_00000169556253369161582590000017918140625785063334_"  style="overflow:visible;"/>
		</clipPath>
		
			<linearGradient id="SVGID_00000080892956139812569200000009722934326672030600_" gradientUnits="userSpaceOnUse" x1="-397.7095" y1="602.5997" x2="-396.7095" y2="602.5997" gradientTransform="matrix(198.3307 0 0 -198.3307 78879.3672 119688.7422)">
			<stop  offset="0" style="stop-color:#F06666"/>
			<stop  offset="0.3536" style="stop-color:#F06666"/>
			<stop  offset="0.4866" style="stop-color:#DC7E81"/>
			<stop  offset="0.6806" style="stop-color:#C19DA4"/>
			<stop  offset="0.7773" style="stop-color:#B7A9B1"/>
			<stop  offset="0.933" style="stop-color:#AAB8C3"/>
			<stop  offset="1" style="stop-color:#AAB8C3"/>
		</linearGradient>
		
			<rect x="35.3" y="166.4" style="clip-path:url(#SVGID_00000159453444234151729440000010416515043175945650_);fill:url(#SVGID_00000080892956139812569200000009722934326672030600_);" width="9.31" height="16.7"/>
	</g>
</g>
<g>
	<defs>
		<polygon id="SVGID_00000139259952074005650980000003424531916406173590_" points="61.2,171.21 58.11,179.22 54.36,171.21 
			51.12,171.21 57.23,183.53 62.19,171.21 		"/>
	</defs>
	<clipPath id="SVGID_00000125592542085831015470000010962376666930115719_">
		<use xlink:href="#SVGID_00000139259952074005650980000003424531916406173590_"  style="overflow:visible;"/>
	</clipPath>
	
		<linearGradient id="SVGID_00000046313180242586554280000006462985181129435545_" gradientUnits="userSpaceOnUse" x1="-397.7095" y1="602.5997" x2="-396.7095" y2="602.5997" gradientTransform="matrix(198.3307 0 0 -198.3307 78879.3672 119691.3594)">
		<stop  offset="0" style="stop-color:#F06666"/>
		<stop  offset="0.3536" style="stop-color:#F06666"/>
		<stop  offset="0.4866" style="stop-color:#DC7E81"/>
		<stop  offset="0.6806" style="stop-color:#C19DA4"/>
		<stop  offset="0.7773" style="stop-color:#B7A9B1"/>
		<stop  offset="0.933" style="stop-color:#AAB8C3"/>
		<stop  offset="1" style="stop-color:#AAB8C3"/>
	</linearGradient>
	
		<rect x="51.12" y="171.21" style="clip-path:url(#SVGID_00000125592542085831015470000010962376666930115719_);fill:url(#SVGID_00000046313180242586554280000006462985181129435545_);" width="11.07" height="12.32"/>
</g>
<g>
	<defs>
		<path id="SVGID_00000158001706614007567870000012077001557340977284_" d="M73.48,171.19c-0.66,0.23-1.23,0.54-1.72,0.93
			c-0.49,0.39-0.9,0.85-1.22,1.36c-0.33,0.52-0.58,1.08-0.74,1.68c-0.16,0.61-0.25,1.24-0.25,1.9v0.02c0,0.67,0.08,1.32,0.25,1.94
			c0.17,0.62,0.42,1.2,0.75,1.73c0.34,0.53,0.75,1,1.24,1.4c0.49,0.41,1.08,0.73,1.75,0.95c0.66,0.26,1.37,0.39,2.12,0.39
			c0.74,0,1.4-0.11,1.97-0.32c0.57-0.21,1.11-0.51,1.61-0.9l-0.49-0.64v-0.02c-0.2,0.16-0.39,0.3-0.58,0.42
			c-0.18,0.12-0.38,0.23-0.59,0.32c-0.21,0.09-0.44,0.16-0.69,0.21c-0.25,0.05-0.54,0.08-0.87,0.1c-0.74,0-1.35-0.2-1.82-0.6
			c-0.47-0.4-0.84-0.89-1.1-1.47c-0.26-0.58-0.45-1.19-0.55-1.83c-0.1-0.64-0.15-1.21-0.15-1.7s0.05-1.04,0.15-1.67
			c0.1-0.63,0.28-1.22,0.55-1.78c0.26-0.56,0.63-1.03,1.1-1.42c0.47-0.39,1.08-0.58,1.82-0.58c0.33,0.01,0.62,0.05,0.87,0.11
			c0.25,0.06,0.48,0.13,0.69,0.21c0.21,0.09,0.4,0.19,0.59,0.32c0.19,0.13,0.38,0.27,0.58,0.41l0.49-0.67
			c-0.5-0.39-1.04-0.69-1.61-0.9c-0.57-0.21-1.23-0.32-1.97-0.32C74.91,170.78,74.18,170.92,73.48,171.19"/>
	</defs>
	<clipPath id="SVGID_00000114759056726754030310000017307595721285607581_">
		<use xlink:href="#SVGID_00000158001706614007567870000012077001557340977284_"  style="overflow:visible;"/>
	</clipPath>
	
		<linearGradient id="SVGID_00000121247945466366513360000007978947522992028315_" gradientUnits="userSpaceOnUse" x1="-397.7095" y1="602.5997" x2="-396.7095" y2="602.5997" gradientTransform="matrix(198.3307 0 0 -198.3307 78879.3672 119691.1328)">
		<stop  offset="0" style="stop-color:#F06666"/>
		<stop  offset="0.3536" style="stop-color:#F06666"/>
		<stop  offset="0.4866" style="stop-color:#DC7E81"/>
		<stop  offset="0.6806" style="stop-color:#C19DA4"/>
		<stop  offset="0.7773" style="stop-color:#B7A9B1"/>
		<stop  offset="0.933" style="stop-color:#AAB8C3"/>
		<stop  offset="1" style="stop-color:#AAB8C3"/>
	</linearGradient>
	
		<rect x="69.55" y="170.78" style="clip-path:url(#SVGID_00000114759056726754030310000017307595721285607581_);fill:url(#SVGID_00000121247945466366513360000007978947522992028315_);" width="9.7" height="12.73"/>
</g>
<g>
	<defs>
		<path id="SVGID_00000045607198267263800350000006572374501073170871_" d="M88.07,183.1h2.68v-11.89h-2.68V183.1z M88.19,166.93
			c-0.34,0.34-0.5,0.74-0.5,1.21c0,0.47,0.17,0.88,0.5,1.21c0.34,0.33,0.74,0.5,1.21,0.5c0.49,0,0.9-0.17,1.23-0.5
			c0.34-0.34,0.5-0.74,0.5-1.21c0-0.47-0.17-0.88-0.5-1.21c-0.34-0.34-0.75-0.5-1.23-0.5C88.93,166.43,88.53,166.59,88.19,166.93"/>
	</defs>
	<clipPath id="SVGID_00000097492531970416832480000007648194647838769035_">
		<use xlink:href="#SVGID_00000045607198267263800350000006572374501073170871_"  style="overflow:visible;"/>
	</clipPath>
	
		<linearGradient id="SVGID_00000113344195256550724080000000005106231947166363_" gradientUnits="userSpaceOnUse" x1="-397.7095" y1="602.5997" x2="-396.7095" y2="602.5997" gradientTransform="matrix(198.3307 0 0 -198.3307 78879.3672 119688.75)">
		<stop  offset="0" style="stop-color:#F06666"/>
		<stop  offset="0.3536" style="stop-color:#F06666"/>
		<stop  offset="0.4866" style="stop-color:#DC7E81"/>
		<stop  offset="0.6806" style="stop-color:#C19DA4"/>
		<stop  offset="0.7773" style="stop-color:#B7A9B1"/>
		<stop  offset="0.933" style="stop-color:#AAB8C3"/>
		<stop  offset="1" style="stop-color:#AAB8C3"/>
	</linearGradient>
	
		<rect x="87.69" y="166.43" style="clip-path:url(#SVGID_00000097492531970416832480000007648194647838769035_);fill:url(#SVGID_00000113344195256550724080000000005106231947166363_);" width="3.45" height="16.67"/>
</g>
<g>
	<defs>
		<rect id="SVGID_00000129927632623385137900000002148012222858460836_" x="100.65" y="166.4" width="2.68" height="16.7"/>
	</defs>
	<clipPath id="SVGID_00000015340930902375163740000001525619814871631782_">
		<use xlink:href="#SVGID_00000129927632623385137900000002148012222858460836_"  style="overflow:visible;"/>
	</clipPath>
	
		<linearGradient id="SVGID_00000161627670815344913560000001239252712309381526_" gradientUnits="userSpaceOnUse" x1="-397.7095" y1="602.5997" x2="-396.7095" y2="602.5997" gradientTransform="matrix(198.3307 0 0 -198.3307 78879.3672 119688.7422)">
		<stop  offset="0" style="stop-color:#F06666"/>
		<stop  offset="0.3536" style="stop-color:#F06666"/>
		<stop  offset="0.4866" style="stop-color:#DC7E81"/>
		<stop  offset="0.6806" style="stop-color:#C19DA4"/>
		<stop  offset="0.7773" style="stop-color:#B7A9B1"/>
		<stop  offset="0.933" style="stop-color:#AAB8C3"/>
		<stop  offset="1" style="stop-color:#AAB8C3"/>
	</linearGradient>
	
		<rect x="100.65" y="166.4" style="clip-path:url(#SVGID_00000015340930902375163740000001525619814871631782_);fill:url(#SVGID_00000161627670815344913560000001239252712309381526_);" width="2.68" height="16.7"/>
</g>
<g>
	<defs>
		<path id="SVGID_00000006689654024312892140000009138364595677932466_" d="M116.85,182.49c-0.5-0.09-0.93-0.34-1.29-0.74
			c-0.36-0.4-0.54-0.94-0.54-1.61c0-0.33,0.04-0.64,0.13-0.94c0.09-0.3,0.24-0.59,0.46-0.87c0.22-0.28,0.53-0.55,0.93-0.81
			c0.4-0.26,0.92-0.51,1.57-0.75c0.39-0.14,0.71-0.28,0.97-0.41c0.26-0.13,0.47-0.26,0.64-0.41v5.17c-0.36,0.57-0.8,0.96-1.33,1.18
			c-0.37,0.15-0.73,0.23-1.09,0.23C117.16,182.53,117,182.52,116.85,182.49 M115.3,171.18c-0.52,0.26-0.96,0.56-1.3,0.89
			c-0.4,0.39-0.74,0.82-1.01,1.31l0.75,0.6c0.23-0.43,0.51-0.82,0.84-1.18c0.29-0.29,0.63-0.55,1.04-0.8
			c0.41-0.25,0.88-0.38,1.43-0.38c0.41,0,0.78,0.05,1.11,0.15c0.32,0.1,0.59,0.27,0.8,0.51c0.21,0.24,0.39,0.55,0.51,0.96
			c0.13,0.4,0.21,0.9,0.24,1.51c-0.24,0.37-0.57,0.66-0.99,0.86c-0.42,0.2-0.97,0.37-1.65,0.49c-0.69,0.13-1.33,0.3-1.92,0.53
			c-0.59,0.22-1.11,0.51-1.55,0.85c-0.44,0.35-0.78,0.75-1.04,1.21c-0.26,0.47-0.39,1-0.39,1.6c0,0.62,0.12,1.13,0.35,1.55
			c0.24,0.42,0.56,0.75,0.97,1c0.41,0.25,0.89,0.43,1.44,0.54c0.55,0.11,1.13,0.16,1.75,0.16c0.5,0,0.94-0.08,1.31-0.23
			c0.37-0.15,0.69-0.32,0.95-0.51c0.3-0.21,0.56-0.46,0.79-0.75v1.05h2.66v-8.17v-0.02c-0.01-0.6-0.14-1.15-0.39-1.66
			c-0.24-0.51-0.59-0.94-1.04-1.31c-0.45-0.37-0.99-0.65-1.63-0.85c-0.64-0.2-1.35-0.3-2.14-0.3
			C116.45,170.78,115.82,170.91,115.3,171.18"/>
	</defs>
	<clipPath id="SVGID_00000096041658789738503680000005401420888989022087_">
		<use xlink:href="#SVGID_00000006689654024312892140000009138364595677932466_"  style="overflow:visible;"/>
	</clipPath>
	
		<linearGradient id="SVGID_00000099655348811518900730000015463395722332850846_" gradientUnits="userSpaceOnUse" x1="-397.7095" y1="602.5997" x2="-396.7095" y2="602.5997" gradientTransform="matrix(198.3307 0 0 -198.3307 78879.3672 119691.1484)">
		<stop  offset="0" style="stop-color:#F06666"/>
		<stop  offset="0.3536" style="stop-color:#F06666"/>
		<stop  offset="0.4866" style="stop-color:#DC7E81"/>
		<stop  offset="0.6806" style="stop-color:#C19DA4"/>
		<stop  offset="0.7773" style="stop-color:#B7A9B1"/>
		<stop  offset="0.933" style="stop-color:#AAB8C3"/>
		<stop  offset="1" style="stop-color:#AAB8C3"/>
	</linearGradient>
	
		<rect x="112.17" y="170.78" style="clip-path:url(#SVGID_00000096041658789738503680000005401420888989022087_);fill:url(#SVGID_00000099655348811518900730000015463395722332850846_);" width="10.22" height="12.75"/>
</g>
<g>
	<defs>
		<polygon id="SVGID_00000049937840186427819540000016010115648954655676_" points="131.9,166.4 131.9,183.55 134.58,183.55 
			134.58,178.04 135.24,177.39 139.43,183.55 142.48,183.55 137.05,175.67 141.7,171.21 140.59,171.21 134.58,176.9 134.58,166.4 		
			"/>
	</defs>
	<clipPath id="SVGID_00000042737498334834043700000005036683463647916458_">
		<use xlink:href="#SVGID_00000049937840186427819540000016010115648954655676_"  style="overflow:visible;"/>
	</clipPath>
	
		<linearGradient id="SVGID_00000005986054992923337110000006923032944162698164_" gradientUnits="userSpaceOnUse" x1="-397.7095" y1="602.5997" x2="-396.7095" y2="602.5997" gradientTransform="matrix(198.3307 0 0 -198.3307 78879.3672 119688.9688)">
		<stop  offset="0" style="stop-color:#F06666"/>
		<stop  offset="0.3536" style="stop-color:#F06666"/>
		<stop  offset="0.4866" style="stop-color:#DC7E81"/>
		<stop  offset="0.6806" style="stop-color:#C19DA4"/>
		<stop  offset="0.7773" style="stop-color:#B7A9B1"/>
		<stop  offset="0.933" style="stop-color:#AAB8C3"/>
		<stop  offset="1" style="stop-color:#AAB8C3"/>
	</linearGradient>
	
		<rect x="131.9" y="166.4" style="clip-path:url(#SVGID_00000042737498334834043700000005036683463647916458_);fill:url(#SVGID_00000005986054992923337110000006923032944162698164_);" width="10.58" height="17.15"/>
</g>
<g>
	<defs>
		<path id="SVGID_00000145035699051074130360000011781983880210224258_" d="M151.06,183.1h2.68v-11.89h-2.68V183.1z M151.18,166.93
			c-0.34,0.34-0.51,0.74-0.51,1.21c0,0.47,0.17,0.88,0.51,1.21c0.34,0.33,0.74,0.5,1.21,0.5c0.49,0,0.9-0.17,1.23-0.5
			c0.34-0.34,0.5-0.74,0.5-1.21c0-0.47-0.17-0.88-0.5-1.21c-0.34-0.34-0.75-0.5-1.23-0.5C151.92,166.43,151.51,166.59,151.18,166.93
			"/>
	</defs>
	<clipPath id="SVGID_00000039118651626264617380000015637337204431126920_">
		<use xlink:href="#SVGID_00000145035699051074130360000011781983880210224258_"  style="overflow:visible;"/>
	</clipPath>
	
		<linearGradient id="SVGID_00000014613721084526609310000001723148057230080445_" gradientUnits="userSpaceOnUse" x1="-397.7095" y1="602.5997" x2="-396.7095" y2="602.5997" gradientTransform="matrix(198.3307 0 0 -198.3307 78879.3672 119688.75)">
		<stop  offset="0" style="stop-color:#F06666"/>
		<stop  offset="0.3536" style="stop-color:#F06666"/>
		<stop  offset="0.4866" style="stop-color:#DC7E81"/>
		<stop  offset="0.6806" style="stop-color:#C19DA4"/>
		<stop  offset="0.7773" style="stop-color:#B7A9B1"/>
		<stop  offset="0.933" style="stop-color:#AAB8C3"/>
		<stop  offset="1" style="stop-color:#AAB8C3"/>
	</linearGradient>
	
		<rect x="150.67" y="166.43" style="clip-path:url(#SVGID_00000039118651626264617380000015637337204431126920_);fill:url(#SVGID_00000014613721084526609310000001723148057230080445_);" width="3.46" height="16.67"/>
</g>
<g>
	<defs>
		<rect id="SVGID_00000108287650212991973840000006689904889768500886_" x="163.64" y="166.4" width="2.68" height="16.7"/>
	</defs>
	<clipPath id="SVGID_00000070104884581559718480000010410144819680172972_">
		<use xlink:href="#SVGID_00000108287650212991973840000006689904889768500886_"  style="overflow:visible;"/>
	</clipPath>
	
		<linearGradient id="SVGID_00000175302805259673049390000016116501384311811997_" gradientUnits="userSpaceOnUse" x1="-397.7095" y1="602.5997" x2="-396.7095" y2="602.5997" gradientTransform="matrix(198.3307 0 0 -198.3307 78879.3672 119688.7422)">
		<stop  offset="0" style="stop-color:#F06666"/>
		<stop  offset="0.3536" style="stop-color:#F06666"/>
		<stop  offset="0.4866" style="stop-color:#DC7E81"/>
		<stop  offset="0.6806" style="stop-color:#C19DA4"/>
		<stop  offset="0.7773" style="stop-color:#B7A9B1"/>
		<stop  offset="0.933" style="stop-color:#AAB8C3"/>
		<stop  offset="1" style="stop-color:#AAB8C3"/>
	</linearGradient>
	
		<rect x="163.64" y="166.4" style="clip-path:url(#SVGID_00000070104884581559718480000010410144819680172972_);fill:url(#SVGID_00000175302805259673049390000016116501384311811997_);" width="2.68" height="16.7"/>
</g>
</svg>
